<svg width="648" height="512" viewBox="0 0 648 512" fill="none" xmlns="http://www.w3.org/2000/svg">
<g filter="url(#filter0_dd_1_2)">
<path d="M216.9 343.981C220.7 343.881 239.7 342.581 242.5 341.781C240.1 339.181 198.9 340.781 174.5 292.181C170.2 283.581 167 274.581 168.1 264.581C171 239.081 201 234.581 220.1 246.081C256.1 267.681 283.4 337.381 333.8 343.581C370.8 348.081 418.4 326.581 442 298.181C441.4 298.081 441.2 297.981 441 298.081C440.6 298.181 440.2 298.281 439.9 298.381C406.6 310.481 345.6 308.081 305.2 283.581C267.6 260.781 252.1 224.881 253.4 208.981C255.2 187.681 276.3 185.781 289.3 189.381C303.7 193.281 313.7 206.981 328.2 216.781C343.8 227.181 361.1 230.481 379.5 227.081C394.4 224.381 413.9 214.781 416 212.581C414.9 212.481 414.2 212.481 413.5 212.381C407.3 211.781 401.1 211.581 395 210.681C283.8 194.181 266.1 47.0811 142.5 37.5811C98.2 34.1811 43.1 45.6811 6.2 72.5811C5.4 73.1811 4.7 73.7811 4 74.3811C4.1 74.5811 4.1 74.6811 4.2 74.8811C5 74.8811 5.8 74.7811 6.6 74.6811C12.9 73.6811 19.1 73.8811 25.3 74.9811C49.1 79.2811 73 98.0811 81.2 151.481C86.5 185.781 80.5 202.281 89.2 237.581C108.2 314.681 180.2 345.181 216.9 343.981ZM79.3 64.5811C78.4 63.5811 78.4 63.3811 78 62.5811C90.1 59.9811 102.2 58.4811 114.6 57.7811C113.5 72.4811 92.4 79.0811 79.3 64.5811ZM276.2 415.081C233.4 416.281 184.2 388.381 152.7 353.681C148.1 348.681 135.9 333.481 134.1 330.281L134.5 329.881C141.1 333.981 160.2 348.481 189.3 356.881C213.5 363.881 237.4 363.181 260.9 353.581C283.6 344.281 301.9 353.081 304 356.481C285.5 360.281 283.9 360.881 280 364.381C274.9 368.781 275.4 376.081 287 381.581C313.2 393.981 350 378.781 384.2 406.981C386.6 408.981 392.3 414.781 394.3 417.681C394.2 417.881 394 417.981 393.9 418.181C389.1 416.681 377.5 410.681 353.7 408.881C329 406.881 307.4 414.181 276.2 415.081V415.081ZM451 163.081C467.4 157.881 492.3 149.681 517.5 159.781C533.6 166.281 543.7 178.481 549.6 194.381C553.1 203.781 554.7 214.081 554.7 223.081C554.5 223.081 554.3 223.081 554.1 223.181C553.9 222.781 553.7 222.281 553.6 221.881C548.6 199.881 523.7 178.081 486 191.981C435.8 210.581 355.6 201.681 309.1 143.981C308.4 143.081 306.7 142.281 307.8 140.781C307.9 140.581 309.9 141.381 310.8 142.081C328.9 155.481 349.1 163.981 371.1 168.281C401.6 174.381 425.7 171.181 451 163.081V163.081ZM553.7 280.581C521.3 280.781 519.9 330.681 450.1 344.981C431.9 348.681 411.4 349.581 405.2 349.181V348.781C408 347.281 419.9 346.181 434.9 332.181C442.8 324.881 450.2 317.081 457.7 309.281C477.2 289.081 499.1 267.081 539.6 270.281C562.7 272.081 568.9 278.481 575.7 282.981C576 283.181 576.1 283.481 576.4 283.881C575.9 283.881 575.7 283.981 575.5 283.881C568.5 281.181 561.2 280.581 553.7 280.581V280.581ZM541.4 256.481C541.3 256.681 541.3 256.881 541.2 257.081C512.3 252.681 493.2 249.181 472.7 261.081C455.7 270.981 441.3 281.581 410.7 285.481C383.6 288.881 365.6 287.881 344.6 277.481C344.3 277.281 344 277.081 343.6 276.881C343.6 276.681 343.7 276.581 343.7 276.381C368.6 280.181 380.1 281.481 399.2 270.581C421.5 257.681 439.3 243.981 470.5 239.581C500.1 235.481 521.8 242.081 541.4 256.481V256.481ZM272.6 96.9811C272 96.3811 271.5 95.7811 270.5 94.6811C278.1 94.6811 300.2 93.4811 323.9 103.081C343.6 111.081 356.1 124.081 374.1 135.981C385.2 143.281 397.5 145.281 410.5 144.081C414.8 143.681 419 142.881 423.3 142.381C423.7 142.281 424.2 142.381 424.8 142.681C424.2 143.081 423.6 143.581 423 143.881C414.9 147.881 406.3 150.181 397.4 150.981C371.3 153.581 347.1 147.281 324 135.581C304.7 125.681 287.6 112.681 272.6 96.9811V96.9811ZM644 335.381C640.5 338.481 621.3 346.981 601.3 340.681C589 336.781 581.8 325.781 569.7 316.581C559.7 308.981 548.8 308.681 541.6 308.181C542.2 307.381 542.5 306.981 542.8 306.781C557.6 297.581 573.3 294.581 590.1 300.281C602.6 304.481 609.3 313.781 620.5 324.481C631.3 334.881 641.5 334.381 643.6 334.981C643.7 334.881 643.8 334.981 644 335.381V335.381ZM431.5 472.381C433.7 473.581 433.1 473.881 433 474.381C414.5 472.981 399.1 466.781 386.2 452.181C364.4 427.481 344.5 424.281 337.6 422.481C338.1 422.281 338.4 422.081 338.7 422.081C351.8 422.181 364.8 422.781 377.6 425.981C402.9 432.381 412.6 451.381 419.2 461.281C422.4 466.081 426.5 469.581 431.5 472.381V472.381Z" fill="black"/>
</g>
<defs>
<filter id="filter0_dd_1_2" x="0" y="0" width="648" height="519.381" filterUnits="userSpaceOnUse" color-interpolation-filters="sRGB">
<feFlood flood-opacity="0" result="BackgroundImageFix"/>
<feColorMatrix in="SourceAlpha" type="matrix" values="0 0 0 0 0 0 0 0 0 0 0 0 0 0 0 0 0 0 127 0" result="hardAlpha"/>
<feOffset dy="4"/>
<feGaussianBlur stdDeviation="2"/>
<feComposite in2="hardAlpha" operator="out"/>
<feColorMatrix type="matrix" values="0 0 0 0 0 0 0 0 0 0 0 0 0 0 0 0 0 0 0.25 0"/>
<feBlend mode="normal" in2="BackgroundImageFix" result="effect1_dropShadow_1_2"/>
<feColorMatrix in="SourceAlpha" type="matrix" values="0 0 0 0 0 0 0 0 0 0 0 0 0 0 0 0 0 0 127 0" result="hardAlpha"/>
<feOffset dy="4"/>
<feGaussianBlur stdDeviation="2"/>
<feComposite in2="hardAlpha" operator="out"/>
<feColorMatrix type="matrix" values="0 0 0 0 0 0 0 0 0 0 0 0 0 0 0 0 0 0 0.25 0"/>
<feBlend mode="normal" in2="effect1_dropShadow_1_2" result="effect2_dropShadow_1_2"/>
<feBlend mode="normal" in="SourceGraphic" in2="effect2_dropShadow_1_2" result="shape"/>
</filter>
</defs>
</svg>
